<svg width="46" height="36" viewBox="0 0 46 36" fill="none" xmlns="http://www.w3.org/2000/svg">
<path d="M42.7304 0.503937C38.4766 0.746906 30.0218 1.63128 24.8023 4.84691C24.4421 5.06878 24.238 5.46331 24.238 5.87581V34.3032C24.238 35.2055 25.2184 35.7758 26.0451 35.3571C31.4151 32.6368 39.1814 31.8946 43.0215 31.6914C44.3326 31.6219 45.3518 30.5641 45.3518 29.2961V2.90238C45.3525 1.51878 44.1602 0.422687 42.7304 0.503937ZM21.1905 4.84691C15.9718 1.63128 7.51694 0.747688 3.26314 0.503937C1.8333 0.422687 0.640991 1.51878 0.640991 2.90238V29.2969C0.640991 30.5657 1.6602 31.6235 2.97127 31.6922C6.81289 31.8953 14.5831 32.6383 19.9531 35.3602C20.7775 35.7782 21.7548 35.2086 21.7548 34.3086V5.86175C21.7548 5.44847 21.5514 5.06956 21.1905 4.84691Z" fill="black" />
</svg>
