<svg width="49" height="39" viewBox="0 0 49 39" fill="none" xmlns="http://www.w3.org/2000/svg">
<path d="M40 25.2C36.3783 25.2 33.4423 28.155 33.4423 31.8C33.4423 35.445 36.3783 38.4 40 38.4C43.6216 38.4 46.5577 35.445 46.5577 31.8C46.5577 28.155 43.6216 25.2 40 25.2ZM40 33.6C39.0141 33.6 38.2115 32.7923 38.2115 31.8C38.2115 30.8078 39.0141 30 40 30C40.9859 30 41.7884 30.8078 41.7884 31.8C41.7884 32.7923 40.9859 33.6 40 33.6ZM45.9615 12H41.1923V8.985C41.1923 7.926 41.5425 6.903 42.1722 6.072C42.5016 5.637 42.4367 5.0175 42.0738 4.61025L40.462 2.7975C39.9657 2.23875 39.0968 2.2785 38.6214 2.856C37.2115 4.5675 36.423 6.73575 36.423 8.985V12H28.7975L24.6177 2.1855C24.3431 1.53662 23.8849 0.983408 23.3001 0.594783C22.7154 0.206158 22.0299 -0.000693692 21.3292 1.74781e-06H11.3846C9.41205 1.74781e-06 7.80766 1.61475 7.80766 3.6V14.589C7.16455 14.0843 6.24573 14.1045 5.65479 14.6993L3.3365 17.0325C2.69638 17.6768 2.69638 18.7215 3.3365 19.3658L3.71357 19.7453C3.34172 20.4398 3.04588 21.1568 2.82604 21.8993H2.29323C1.38782 21.8993 0.653809 22.638 0.653809 23.5493V26.8493C0.653809 27.7605 1.38782 28.4993 2.29323 28.4993H2.8253C3.04588 29.2425 3.34097 29.9588 3.71282 30.654L3.33576 31.0335C2.69564 31.6778 2.69564 32.7225 3.33576 33.3668L5.65405 35.7C6.29417 36.3443 7.33222 36.3443 7.97234 35.7L8.34941 35.3205C9.03946 35.6948 9.75186 35.9925 10.4896 36.2138V36.75C10.4896 37.6613 11.2236 38.4 12.129 38.4H15.4079C16.3133 38.4 17.0473 37.6613 17.0473 36.75V36.2145C17.785 35.9933 18.4974 35.6955 19.1875 35.3213L19.5646 35.7008C20.2047 36.345 21.2427 36.345 21.8828 35.7008L24.2011 33.3675C24.8413 32.7233 24.8413 31.6785 24.2011 31.0343L23.8241 30.6548C24.1959 29.9603 24.4918 29.2433 24.7116 28.5008H25.2452C26.1506 28.5008 26.8846 27.762 26.8846 26.8508V26.4008H32.8864C34.5191 24.2265 37.0833 22.8008 40 22.8008C41.389 22.8008 42.6879 23.1465 43.8601 23.7158L47.6471 19.9043C48.0942 19.4543 48.3454 18.8438 48.3454 18.207V14.4C48.3461 13.0748 47.2783 12 45.9615 12ZM13.7692 31.2C10.4769 31.2 7.80766 28.5135 7.80766 25.2C7.80766 21.8865 10.4769 19.2 13.7692 19.2C17.0615 19.2 19.7307 21.8865 19.7307 25.2C19.7307 28.5135 17.0615 31.2 13.7692 31.2ZM15.4086 12H12.5769V4.8H20.5422L23.6087 12H15.4086Z" fill="white"/>
</svg>
