<svg width="25" height="29" viewBox="0 0 25 29" fill="none" xmlns="http://www.w3.org/2000/svg">
<g clip-path="url(#clip0_34:33)">
<path d="M22.3214 12.5H20.9821V8.48214C20.9821 3.8058 17.1763 0 12.5 0C7.82366 0 4.01786 3.8058 4.01786 8.48214V12.5H2.67857C1.19978 12.5 0 13.6998 0 15.1786V25.8929C0 27.3717 1.19978 28.5714 2.67857 28.5714H22.3214C23.8002 28.5714 25 27.3717 25 25.8929V15.1786C25 13.6998 23.8002 12.5 22.3214 12.5ZM16.5179 12.5H8.48214V8.48214C8.48214 6.26674 10.2846 4.46429 12.5 4.46429C14.7154 4.46429 16.5179 6.26674 16.5179 8.48214V12.5Z" fill="black" fill-opacity="0.2"/>
</g>
<defs>
<clipPath id="clip0_34:33">
<rect width="25" height="28.5714" fill="white"/>
</clipPath>
</defs>
</svg>
