<svg width="42" height="48" viewBox="0 0 42 48" fill="none" xmlns="http://www.w3.org/2000/svg">
<path d="M21.0026 48C24.2715 48 26.9231 45.3141 26.9231 42H15.082C15.082 45.3141 17.7336 48 21.0026 48ZM40.9373 33.9647C39.1492 32.0184 35.8035 29.0906 35.8035 19.5C35.8035 12.2156 30.7612 6.38438 23.9624 4.95375V3C23.9624 1.34344 22.637 0 21.0026 0C19.3681 0 18.0428 1.34344 18.0428 3V4.95375C11.2439 6.38438 6.20167 12.2156 6.20167 19.5C6.20167 29.0906 2.85591 32.0184 1.06781 33.9647C0.512499 34.5694 0.26631 35.2922 0.270938 36C0.281119 37.5375 1.47226 39 3.24185 39H38.7633C40.5329 39 41.7249 37.5375 41.7342 36C41.7388 35.2922 41.4926 34.5684 40.9373 33.9647V33.9647Z" fill="black" />
</svg>
