<svg width="48" height="43" viewBox="0 0 48 43" fill="none" xmlns="http://www.w3.org/2000/svg">
<path d="M47.163 36.6678C48.6815 39.3339 46.7754 42.6667 43.7425 42.6667H4.26304C1.22429 42.6667 -0.67298 39.3288 0.842569 36.6678L20.5825 1.99875C22.1018 -0.668666 25.907 -0.663833 27.4235 1.99875L47.163 36.6678ZM24.003 29.5C21.913 29.5 20.2187 31.2163 20.2187 33.3333C20.2187 35.4504 21.913 37.1667 24.003 37.1667C26.0931 37.1667 27.7874 35.4504 27.7874 33.3333C27.7874 31.2163 26.0931 29.5 24.003 29.5ZM20.4101 15.7212L21.0204 27.0545C21.0489 27.5848 21.4818 28 22.0061 28H25.9999C26.5242 28 26.9571 27.5848 26.9857 27.0545L27.5959 15.7212C27.6268 15.1483 27.1765 14.6667 26.6102 14.6667H21.3958C20.8294 14.6667 20.3793 15.1483 20.4101 15.7212Z" fill="#FA5252"/>
</svg>
